<svg width="45" height="50" viewBox="0 0 45 50" fill="none" xmlns="http://www.w3.org/2000/svg">
<path d="M22.491 0.487305C17.1176 0.487305 12.741 4.86397 12.741 10.2373V26.4873C12.741 26.7148 12.7513 26.9414 12.7621 27.158L14.366 25.5563V25.5542L15.7201 24.2021L28.991 10.9313V10.9292L30.561 9.35921L31.9701 7.95215C30.941 3.67298 27.0735 0.487305 22.491 0.487305ZM42.5009 2.63916C42.0789 2.65146 41.6782 2.82751 41.3837 3.13005L1.30038 43.2134C1.14443 43.3631 1.01992 43.5425 0.934148 43.7409C0.848376 43.9394 0.803063 44.153 0.800865 44.3691C0.798667 44.5853 0.839628 44.7998 0.921348 44.9999C1.00307 45.2001 1.1239 45.382 1.27678 45.5348C1.42966 45.6877 1.6115 45.8085 1.81166 45.8903C2.01182 45.972 2.22628 46.0129 2.44247 46.0107C2.65866 46.0085 2.87223 45.9632 3.07069 45.8775C3.26915 45.7917 3.4485 45.6672 3.59823 45.5112L11.08 38.0295C13.6518 40.578 17.0696 42.2643 20.866 42.6442V47.6123C20.8629 47.8276 20.9027 48.0414 20.983 48.2412C21.0633 48.4411 21.1825 48.6229 21.3337 48.7763C21.4849 48.9296 21.6651 49.0514 21.8637 49.1345C22.0624 49.2176 22.2756 49.2604 22.491 49.2604C22.7063 49.2604 22.9195 49.2176 23.1182 49.1345C23.3169 49.0514 23.497 48.9296 23.6482 48.7763C23.7994 48.6229 23.9186 48.4411 23.9989 48.2412C24.0792 48.0414 24.119 47.8276 24.116 47.6123V42.6548C32.3151 41.8365 38.741 34.898 38.741 26.4873V22.6956C38.741 21.7965 38.0151 21.0706 37.116 21.0706C36.2168 21.0706 35.491 21.7965 35.491 22.6956V26.4873C35.491 33.594 29.7657 39.3725 22.6835 39.4767C22.6652 39.4743 22.6469 39.4722 22.6285 39.4704C22.5743 39.4655 22.52 39.4634 22.4656 39.464C22.4111 39.4648 22.3568 39.4684 22.3027 39.4746C22.2998 39.4753 22.297 39.476 22.2942 39.4767C22.2935 39.4767 22.2928 39.4767 22.2921 39.4767C18.8185 39.4238 15.6743 38.0073 13.3757 35.7337L15.6799 33.4295C17.4402 35.157 19.8366 36.2373 22.491 36.2373C27.8643 36.2373 32.241 31.8606 32.241 26.4873V16.8685L43.6816 5.4279C43.916 5.19958 44.076 4.90581 44.1408 4.58502C44.2055 4.26424 44.1718 3.9314 44.0443 3.63005C43.9167 3.3287 43.7011 3.07289 43.4257 2.89609C43.1503 2.71929 42.828 2.62974 42.5009 2.63916V2.63916ZM7.86598 21.0706C6.96681 21.0706 6.24098 21.7965 6.24098 22.6956V26.4873C6.24098 28.6215 6.65298 30.6585 7.40048 32.5218L9.96705 29.9531C9.65288 28.8481 9.49098 27.6898 9.49098 26.4873V22.6956C9.49098 21.7965 8.76514 21.0706 7.86598 21.0706Z" fill="white"/>
</svg>
